<svg xmlns="http://www.w3.org/2000/svg" viewBox="0 0 222.53 27.14"><defs><style>.cls-1{fill:#35495e;}.cls-2{fill:#fdbb1d;}.cls-3{fill:#2075b8;opacity:0.2;}</style></defs><title>logo_light</title><g id="Layer_2" data-name="Layer 2"><g id="Layer_1-2" data-name="Layer 1"><path class="cls-1" d="M41,19.79a6.22,6.22,0,0,0,1.21-.1,5.08,5.08,0,0,0,.88-.28,3.27,3.27,0,0,0,.62-.36l.45-.36a3.44,3.44,0,0,1,.38-.27.76.76,0,0,1,.38-.11.82.82,0,0,1,.34.07.52.52,0,0,1,.19.16l1.45,1.73A8.06,8.06,0,0,1,44,22.45a9.13,9.13,0,0,1-3.75.74,7.39,7.39,0,0,1-3.1-.62,6.59,6.59,0,0,1-2.27-1.69,7.5,7.5,0,0,1-1.4-2.55,10.49,10.49,0,0,1-.47-3.18,12.59,12.59,0,0,1,.35-3,11.39,11.39,0,0,1,1-2.62A10.29,10.29,0,0,1,36,7.36a10,10,0,0,1,2-1.63,9.3,9.3,0,0,1,2.37-1A9.56,9.56,0,0,1,43,4.34a8.46,8.46,0,0,1,1.89.19,6.9,6.9,0,0,1,1.55.55A5.91,5.91,0,0,1,48.59,7L47.15,8.64A1.78,1.78,0,0,1,46.8,9a1,1,0,0,1-.54.14.87.87,0,0,1-.39-.1,2.6,2.6,0,0,1-.36-.25l-.41-.32a2.58,2.58,0,0,0-.55-.33,3.9,3.9,0,0,0-.75-.24,4.44,4.44,0,0,0-1-.1,4.83,4.83,0,0,0-2.17.49,5.24,5.24,0,0,0-1.75,1.41,6.82,6.82,0,0,0-1.16,2.23,9.88,9.88,0,0,0-.41,2.93,7.17,7.17,0,0,0,.28,2.1,4.75,4.75,0,0,0,.78,1.56A3.25,3.25,0,0,0,41,19.79Z"/><path class="cls-1" d="M53,23.19a5.8,5.8,0,0,1-2.06-.37,4.75,4.75,0,0,1-1.66-1.07A4.84,4.84,0,0,1,48.17,20a6.4,6.4,0,0,1-.4-2.37,8.6,8.6,0,0,1,.58-3.21,8,8,0,0,1,1.55-2.52,7.08,7.08,0,0,1,2.26-1.66,6.26,6.26,0,0,1,2.7-.6,5.74,5.74,0,0,1,2,.37,4.8,4.8,0,0,1,1.65,1.07,5,5,0,0,1,1.11,1.73,6.49,6.49,0,0,1,.4,2.38,8.64,8.64,0,0,1-.57,3.18A8.15,8.15,0,0,1,58,20.91a7.07,7.07,0,0,1-2.26,1.67A6.19,6.19,0,0,1,53,23.19Zm.35-2.92a1.92,1.92,0,0,0,1.18-.39,3.35,3.35,0,0,0,.88-1.09A6.34,6.34,0,0,0,56,17.18a9.36,9.36,0,0,0,.2-2,4,4,0,0,0-.39-2,1.35,1.35,0,0,0-1.26-.61,1.89,1.89,0,0,0-1.17.39,3.22,3.22,0,0,0-.88,1.09,6.13,6.13,0,0,0-.56,1.6,9.53,9.53,0,0,0-.2,2,4,4,0,0,0,.39,2A1.36,1.36,0,0,0,53.34,20.27Z"/><path class="cls-1" d="M66.61,9.86,65,23H61.16L62.73,9.86Zm.73-3.6a2,2,0,0,1-.2.88,2.59,2.59,0,0,1-.53.72,2.78,2.78,0,0,1-.76.5,2.18,2.18,0,0,1-.86.18,2.06,2.06,0,0,1-.85-.18,2.58,2.58,0,0,1-.72-.5,2.5,2.5,0,0,1-.5-.72,2.13,2.13,0,0,1,0-1.76,2.44,2.44,0,0,1,1.24-1.24A2.09,2.09,0,0,1,65,4a2.32,2.32,0,0,1,.87.17,2.52,2.52,0,0,1,1.26,1.23A2.12,2.12,0,0,1,67.34,6.26Z"/><path class="cls-1" d="M75.42,23l1-8.34c0-.13,0-.26,0-.37s0-.22,0-.32a1.42,1.42,0,0,0-.23-.94.91.91,0,0,0-.7-.25,1.77,1.77,0,0,0-.9.26,3.59,3.59,0,0,0-.89.75A5.18,5.18,0,0,0,73,14.94a7,7,0,0,0-.56,1.52L71.67,23H67.74L69.31,9.86h2a1.45,1.45,0,0,1,1,.28,1.14,1.14,0,0,1,.34.93v1a6.42,6.42,0,0,1,2.08-1.86A4.77,4.77,0,0,1,77,9.65a3.27,3.27,0,0,1,1.34.27,2.92,2.92,0,0,1,1.06.78,3.65,3.65,0,0,1,.7,1.26,5.33,5.33,0,0,1,.25,1.72c0,.15,0,.31,0,.47s0,.32,0,.49l-1,8.34Z"/><path class="cls-1" d="M92.19,16.51c.13-.27.27-.55.42-.82s.3-.54.46-.81l5.65-9.71a1.1,1.1,0,0,1,.63-.53,2.8,2.8,0,0,1,.74-.1h3.24L101.05,23H97.43l1.29-10.73q0-.35.12-.75c0-.28.12-.56.18-.86l-5.54,9.52a1.62,1.62,0,0,1-.66.64,1.89,1.89,0,0,1-.89.21h-.55a1.55,1.55,0,0,1-.84-.22,1.09,1.09,0,0,1-.5-.63L86.8,10.62c0,.28,0,.56,0,.83s0,.52-.06.74L85.43,23H81.78L84.06,4.55h3.61a1,1,0,0,1,.36.06.71.71,0,0,1,.27.18,1,1,0,0,1,.19.37l3.24,9.72C91.91,15.41,92.06,16,92.19,16.51Z"/><path class="cls-1" d="M114.5,23h-2.1a1.78,1.78,0,0,1-.61-.09,1,1,0,0,1-.39-.26.92.92,0,0,1-.21-.39,2.65,2.65,0,0,1,0-.5v-.93a6.71,6.71,0,0,1-1.8,1.74,4,4,0,0,1-2.18.64A3.38,3.38,0,0,1,104.63,22a4.13,4.13,0,0,1-.81-1.47,6.63,6.63,0,0,1-.3-2.11,8.77,8.77,0,0,1,.65-3.38A8.67,8.67,0,0,1,106,12.27a8.94,8.94,0,0,1,2.78-1.91,8.7,8.7,0,0,1,3.53-.71,15.29,15.29,0,0,1,1.9.13,9.74,9.74,0,0,1,1.9.46Zm-5.77-2.9a1.3,1.3,0,0,0,.84-.32,3.55,3.55,0,0,0,.76-.88,7.5,7.5,0,0,0,.67-1.3,13.64,13.64,0,0,0,.52-1.6l.45-3.63h-.22a3.58,3.58,0,0,0-1.76.43A4.35,4.35,0,0,0,108.63,14a5.7,5.7,0,0,0-.88,1.72,6.88,6.88,0,0,0-.31,2.1,4.69,4.69,0,0,0,.1,1.07,2.47,2.47,0,0,0,.27.72,1.2,1.2,0,0,0,.41.4A1.13,1.13,0,0,0,108.73,20.08Z"/><path class="cls-1" d="M117,23l1.59-13.12h2a1.45,1.45,0,0,1,1,.28,1.17,1.17,0,0,1,.34.93v1.5a7,7,0,0,1,1.64-2.07,2.9,2.9,0,0,1,1.84-.72,2.51,2.51,0,0,1,1.05.24l-.71,3.63a3.19,3.19,0,0,0-1.23-.27,2.24,2.24,0,0,0-1.73.88,6.79,6.79,0,0,0-1.22,2.82l-.71,5.9Z"/><path class="cls-1" d="M132.83,4l-1.3,10.62h.27a1.17,1.17,0,0,0,.53-.1,1.18,1.18,0,0,0,.4-.36l2.71-3.7A1.58,1.58,0,0,1,136,10a1.55,1.55,0,0,1,.71-.15h3.52l-3.67,4.67a3.42,3.42,0,0,1-.56.58,3.76,3.76,0,0,1-.63.44,2.42,2.42,0,0,1,.46.5,3.63,3.63,0,0,1,.35.65L138.78,23h-3.41a1.54,1.54,0,0,1-.69-.14,1,1,0,0,1-.43-.52l-1.82-4.64a.82.82,0,0,0-.3-.41,1,1,0,0,0-.51-.1h-.41L130.5,23h-3.87L129,4Z"/><path class="cls-1" d="M150.91,13.08a3.76,3.76,0,0,1-.36,1.65,3.2,3.2,0,0,1-1.23,1.32A8.17,8.17,0,0,1,147,17a24.27,24.27,0,0,1-3.74.64,3,3,0,0,0,.59,2,2.16,2.16,0,0,0,1.67.62,4,4,0,0,0,.9-.09,2.84,2.84,0,0,0,.66-.23,4,4,0,0,0,.51-.29l.44-.29a2.3,2.3,0,0,1,.44-.23,1.38,1.38,0,0,1,.52-.09.81.81,0,0,1,.36.1,1,1,0,0,1,.32.25l1,1.17a14.1,14.1,0,0,1-1.36,1.19,7.76,7.76,0,0,1-1.37.82,6.48,6.48,0,0,1-1.49.47,8.48,8.48,0,0,1-1.73.16,5.74,5.74,0,0,1-2.14-.4,4.75,4.75,0,0,1-1.67-1.13,4.9,4.9,0,0,1-1.09-1.75,6.42,6.42,0,0,1-.39-2.28,8.71,8.71,0,0,1,.24-2,7.77,7.77,0,0,1,.67-1.88,7.34,7.34,0,0,1,1.07-1.62,6.68,6.68,0,0,1,5.16-2.4,5.43,5.43,0,0,1,1.87.3,4.65,4.65,0,0,1,1.37.79,3.54,3.54,0,0,1,.85,1.1A2.83,2.83,0,0,1,150.91,13.08Zm-4.61-.76a2.28,2.28,0,0,0-1.71.78,5,5,0,0,0-1.1,2.14,19.14,19.14,0,0,0,2-.4,4.75,4.75,0,0,0,1.18-.46,1.37,1.37,0,0,0,.56-.53,1.28,1.28,0,0,0,.15-.61.92.92,0,0,0-.26-.62A1,1,0,0,0,146.3,12.32Z"/><path class="cls-1" d="M152.83,20.15v-.22c0-.08,0-.2,0-.36s0-.36.07-.62l.12-1,.67-5.36h-1.05a.6.6,0,0,1-.41-.16.65.65,0,0,1-.16-.48s0-.08,0-.22,0-.29,0-.44,0-.3.05-.44,0-.21,0-.23l0-.34,2-.4,1.11-3.21a.81.81,0,0,1,.86-.6h2.12l-.48,3.83h2.94l-.33,2.69h-2.94l-.63,5.15c0,.34-.07.62-.09.81s0,.35-.06.46,0,.18,0,.21a.32.32,0,0,0,0,.07,1.1,1.1,0,0,0,.17.62.64.64,0,0,0,.54.25,1.06,1.06,0,0,0,.34-.05L158,20l.19-.1a.46.46,0,0,1,.2-.05.37.37,0,0,1,.27.09.68.68,0,0,1,.16.26l.86,1.86a5.78,5.78,0,0,1-1.68.85,6,6,0,0,1-1.81.29,4.19,4.19,0,0,1-1.37-.21,2.92,2.92,0,0,1-1-.61,2.85,2.85,0,0,1-.68-1A3.33,3.33,0,0,1,152.83,20.15Z"/><path class="cls-2" d="M162,4.54h3.24a1.32,1.32,0,0,1,.85.25,1,1,0,0,1,.39.65l1.29,9.94c0,.23.06.47.07.72s0,.48,0,.68,0,.48,0,.71c.13-.4.26-.77.4-1.12s.27-.68.38-1l3.78-9.94a1.4,1.4,0,0,1,.53-.62,1.49,1.49,0,0,1,.91-.28h1a1.38,1.38,0,0,1,.87.25,1,1,0,0,1,.4.65l1.42,9.94c0,.29.08.61.13,1s.08.72.12,1.1c.11-.38.22-.74.33-1.09s.22-.67.33-1l3.64-9.94a1.33,1.33,0,0,1,.54-.63,1.64,1.64,0,0,1,.93-.27h3.27L179.33,23h-3.75l-1.7-11.64c0-.19,0-.39-.08-.62a7,7,0,0,1-.09-.7c-.1.25-.19.48-.27.7l-.24.62L168.69,23H165Z"/><path class="cls-2" d="M186,23,188.28,4h3.92l-.92,7.55a6,6,0,0,1,1.9-1.46,4.81,4.81,0,0,1,2.06-.47,3.4,3.4,0,0,1,1.36.27,3,3,0,0,1,1.07.78,3.65,3.65,0,0,1,.7,1.26,5.61,5.61,0,0,1,.25,1.72c0,.15,0,.31,0,.47s0,.32,0,.49l-1,8.34h-3.93l1-8.34c0-.13,0-.26,0-.37s0-.22,0-.32a1.41,1.41,0,0,0-.24-.95.91.91,0,0,0-.72-.27,1.76,1.76,0,0,0-.82.23,3.18,3.18,0,0,0-.83.67,5.35,5.35,0,0,0-.75,1,6.37,6.37,0,0,0-.57,1.35l-.85,7Z"/><path class="cls-2" d="M210.81,23h-2.1a1.85,1.85,0,0,1-.62-.09,1.11,1.11,0,0,1-.39-.26.91.91,0,0,1-.2-.39,2,2,0,0,1-.06-.5v-.93a6.71,6.71,0,0,1-1.8,1.74,3.94,3.94,0,0,1-2.17.64,3.4,3.4,0,0,1-1.37-.29,3.23,3.23,0,0,1-1.16-.86,4.13,4.13,0,0,1-.81-1.47,6.34,6.34,0,0,1-.31-2.11,9,9,0,0,1,.65-3.38,8.67,8.67,0,0,1,4.6-4.72,8.74,8.74,0,0,1,3.54-.71,15.56,15.56,0,0,1,1.9.13,9.65,9.65,0,0,1,1.89.46ZM205,20.08a1.3,1.3,0,0,0,.83-.32,3.57,3.57,0,0,0,.77-.88,7.5,7.5,0,0,0,.66-1.3,10.71,10.71,0,0,0,.52-1.6l.46-3.63h-.23a3.55,3.55,0,0,0-1.75.43A4.35,4.35,0,0,0,204.94,14a5.48,5.48,0,0,0-.88,1.72,6.88,6.88,0,0,0-.31,2.1,4.69,4.69,0,0,0,.1,1.07,2.21,2.21,0,0,0,.27.72,1.18,1.18,0,0,0,.4.4A1.14,1.14,0,0,0,205,20.08Z"/><path class="cls-2" d="M214.56,20.15v-.22c0-.08,0-.2,0-.36s0-.36.07-.62l.12-1,.67-5.36h-1.05a.6.6,0,0,1-.41-.16.65.65,0,0,1-.16-.48s0-.08,0-.22,0-.29,0-.44,0-.3.06-.44,0-.21,0-.23l0-.34,2-.4,1.1-3.21a.81.81,0,0,1,.86-.6h2.12l-.48,3.83h2.94l-.33,2.69h-2.94l-.63,5.15c0,.34-.07.62-.09.81s0,.35,0,.46,0,.18,0,.21a.24.24,0,0,1,0,.07,1,1,0,0,0,.18.62.61.61,0,0,0,.53.25,1.06,1.06,0,0,0,.34-.05,1,1,0,0,0,.23-.1l.19-.1a.46.46,0,0,1,.21-.05.36.36,0,0,1,.26.09.69.69,0,0,1,.17.26l.86,1.86a6.09,6.09,0,0,1-3.5,1.14,4.13,4.13,0,0,1-1.36-.21,2.88,2.88,0,0,1-1.05-.61,2.85,2.85,0,0,1-.68-1A3.15,3.15,0,0,1,214.56,20.15Z"/><path class="cls-1" d="M27.14,13.57H0a13.57,13.57,0,0,0,27.14,0Z"/><path class="cls-2" d="M22.62,13.57h4.52A13.57,13.57,0,0,0,0,13.57H15.83l6.79,6.79Z"/><polygon class="cls-1" points="11.31 13.75 4.52 13.75 4.52 6.97 11.31 13.75"/><polygon class="cls-3" points="13.58 13.57 13.56 13.57 13.57 13.57 13.58 13.57"/><path class="cls-2" d="M9.47,23.22a7.87,7.87,0,0,1-1.12-.08,8.23,8.23,0,0,1-1-.2V21.51a5,5,0,0,0,.69.17c.26,0,.51.08.76.1l.64,0a2.87,2.87,0,0,0,.75-.07.64.64,0,0,0,.36-.19.49.49,0,0,0,.11-.31.41.41,0,0,0-.17-.35,1.77,1.77,0,0,0-.69-.22l-.58-.12a3,3,0,0,1-1.57-.68,1.67,1.67,0,0,1-.47-1.24A1.72,1.72,0,0,1,8,17.12a4.23,4.23,0,0,1,2.38-.54,7.27,7.27,0,0,1,1,.06,7.05,7.05,0,0,1,.8.13V18.2a6.4,6.4,0,0,0-.8-.15,6.82,6.82,0,0,0-.87-.06,4.14,4.14,0,0,0-.89.07,1,1,0,0,0-.44.2.44.44,0,0,0-.12.3.42.42,0,0,0,.14.33,1.47,1.47,0,0,0,.58.21l.58.11a4.17,4.17,0,0,1,1.28.42,1.66,1.66,0,0,1,.69.64,1.82,1.82,0,0,1,.21.88,1.75,1.75,0,0,1-.36,1.1,2.28,2.28,0,0,1-1,.72A4.54,4.54,0,0,1,9.47,23.22ZM9,16.9V15.62h1.69V16.9Zm0,7.28V22.91h1.69v1.27Z"/><path class="cls-2" d="M14.3,23.22a1.25,1.25,0,0,1-.83-.26.91.91,0,0,1,0-1.35,1.21,1.21,0,0,1,.83-.25,1.26,1.26,0,0,1,.84.25.88.88,0,0,1,.29.68.85.85,0,0,1-.3.67A1.23,1.23,0,0,1,14.3,23.22Zm-.52-2.28-.42-2.1V16.67h1.88v2.17l-.39,2.1Z"/><path class="cls-1" d="M13.74,10.61l-.66,0-.74-.05-.68-.07V4.26c.23-.06.48-.1.76-.15l.85-.1.82,0a6.11,6.11,0,0,1,1.77.21,2,2,0,0,1,1,.63,1.68,1.68,0,0,1,.31,1,1.41,1.41,0,0,1-.15.65,1.32,1.32,0,0,1-.4.48,1.36,1.36,0,0,1-.6.26v0a1.63,1.63,0,0,1,.94.45,1.39,1.39,0,0,1,.37,1,1.79,1.79,0,0,1-.18.81,1.49,1.49,0,0,1-.59.61,3.26,3.26,0,0,1-1.1.39A9.06,9.06,0,0,1,13.74,10.61Zm-.89-6.08V3h1V4.53Zm0,7V10.05h1v1.52Zm1.39-2.21a3.2,3.2,0,0,0,.87-.09A.77.77,0,0,0,15.54,9a.69.69,0,0,0,.12-.41A.67.67,0,0,0,15.42,8a1.51,1.51,0,0,0-.86-.18H13.24V6.59H14.4A2,2,0,0,0,15,6.51a.64.64,0,0,0,.33-.23.65.65,0,0,0,.1-.38.56.56,0,0,0-.25-.51,1.75,1.75,0,0,0-.9-.17,3.11,3.11,0,0,0-.43,0,2.37,2.37,0,0,0-.41.06v4l.4,0Zm.29-4.83V3h1V4.53Zm0,7V10.05h1v1.52Z"/><path class="cls-1" d="M19.35,8.34,19,6.78a4.78,4.78,0,0,0,1-.2,1.12,1.12,0,0,0,.47-.29.56.56,0,0,0,.14-.35.51.51,0,0,0-.27-.45,1.82,1.82,0,0,0-.9-.16,5.12,5.12,0,0,0-.85.07,5,5,0,0,0-.83.19V4.23a4.71,4.71,0,0,1,.56-.13c.21,0,.43-.07.65-.09a5.07,5.07,0,0,1,.66,0,3.44,3.44,0,0,1,2.05.49,1.58,1.58,0,0,1,.67,1.37,1.55,1.55,0,0,1-.22.84,1.76,1.76,0,0,1-.62.59,3.44,3.44,0,0,1-1,.38l-.11.7Zm.54,2.27a1.27,1.27,0,0,1-.83-.26.91.91,0,0,1,0-1.35,1.25,1.25,0,0,1,.83-.25,1.22,1.22,0,0,1,.84.25.85.85,0,0,1,.3.68.83.83,0,0,1-.3.67A1.26,1.26,0,0,1,19.89,10.61Z"/></g></g></svg>